<svg width="109" height="23" viewBox="0 0 109 23" fill="none" xmlns="http://www.w3.org/2000/svg">
<path d="M65.952 23H49.216V19.224L60.768 4.408H49.792V0.664001H65.632V4.44L54.048 19.256H65.952V23Z" fill="#8D8D8D"/>
<path d="M0.623993 0.664001H10.96C11.8773 0.664001 12.6987 0.802668 13.424 1.08C14.1707 1.35733 14.8 1.74133 15.312 2.232C15.824 2.72267 16.208 3.33067 16.464 4.056C16.7413 4.76 16.88 5.53867 16.88 6.392C16.88 7.24533 16.7627 7.97067 16.528 8.568C16.3147 9.144 16.016 9.624 15.632 10.008C15.2693 10.392 14.8427 10.68 14.352 10.872C13.8827 11.064 13.392 11.1707 12.88 11.192V11.384C13.3707 11.384 13.8933 11.48 14.448 11.672C15.024 11.864 15.5467 12.1733 16.016 12.6C16.5067 13.0053 16.912 13.5387 17.232 14.2C17.552 14.84 17.712 15.64 17.712 16.6C17.712 17.496 17.5627 18.3387 17.264 19.128C16.9867 19.896 16.592 20.568 16.08 21.144C15.568 21.72 14.96 22.1787 14.256 22.52C13.552 22.84 12.784 23 11.952 23H0.623993V0.664001ZM4.84799 19.416H10.736C11.5467 19.416 12.176 19.2133 12.624 18.808C13.072 18.3813 13.296 17.7733 13.296 16.984V15.896C13.296 15.1067 13.072 14.4987 12.624 14.072C12.176 13.6453 11.5467 13.432 10.736 13.432H4.84799V19.416ZM4.84799 9.976H10.064C10.832 9.976 11.4293 9.77333 11.856 9.368C12.2827 8.94133 12.496 8.35467 12.496 7.608V6.616C12.496 5.86933 12.2827 5.29333 11.856 4.888C11.4293 4.46133 10.832 4.248 10.064 4.248H4.84799V9.976Z" fill="#393939"/>
<path d="M35.2292 23L33.4372 17.304H25.5012L23.7412 23H19.4532L26.9412 0.664001H32.1892L39.6132 23H35.2292ZM29.5332 4.504H29.3732L26.5252 13.688H32.4132L29.5332 4.504Z" fill="#393939"/>
<path d="M58.2332 23H41.4972V19.224L53.0492 4.408H42.0732V0.664001H57.9132V4.44L46.3292 19.256H58.2332V23Z" fill="#393939"/>
<path d="M83.448 23L81.656 17.304H73.72L71.96 23H67.672L75.16 0.664001H80.408L87.832 23H83.448ZM77.752 4.504H77.592L74.744 13.688H80.632L77.752 4.504Z" fill="#393939"/>
<path d="M95.348 23H91.124V0.664001H101.204C102.228 0.664001 103.145 0.824001 103.956 1.144C104.767 1.464 105.449 1.93333 106.004 2.552C106.58 3.14933 107.017 3.87467 107.316 4.728C107.636 5.58133 107.796 6.53067 107.796 7.576C107.796 9.112 107.444 10.4347 106.74 11.544C106.057 12.6533 105.023 13.4427 103.636 13.912L108.212 23H103.508L99.348 14.392H95.348V23ZM100.788 10.84C101.599 10.84 102.239 10.6267 102.708 10.2C103.177 9.752 103.412 9.12267 103.412 8.312V6.84C103.412 6.02933 103.177 5.41067 102.708 4.984C102.239 4.55733 101.599 4.344 100.788 4.344H95.348V10.84H100.788Z" fill="#393939"/>
</svg>
